<svg width="16" height="16" viewBox="0 0 16 16" fill="none" xmlns="http://www.w3.org/2000/svg">
<path d="M14 4.66667V12.6667C14 13.0333 13.8696 13.3473 13.6087 13.6087C13.3473 13.8696 13.0333 14 12.6667 14H3.33333C2.96667 14 2.65267 13.8696 2.39133 13.6087C2.13044 13.3473 2 13.0333 2 12.6667V3.33333C2 2.96667 2.13044 2.65267 2.39133 2.39133C2.65267 2.13044 2.96667 2 3.33333 2H11.3333L14 4.66667ZM8 12C8.55556 12 9.02778 11.8056 9.41667 11.4167C9.80556 11.0278 10 10.5556 10 10C10 9.44444 9.80556 8.97222 9.41667 8.58333C9.02778 8.19444 8.55556 8 8 8C7.44444 8 6.97222 8.19444 6.58333 8.58333C6.19444 8.97222 6 9.44444 6 10C6 10.5556 6.19444 11.0278 6.58333 11.4167C6.97222 11.8056 7.44444 12 8 12ZM4 6.66667H10V4H4V6.66667Z" fill="white"/>
</svg>
